<?xml version="1.0" encoding="UTF-8"?>
<svg version="1.1" xmlns="http://www.w3.org/2000/svg" width="82" height="91">
<path d="M0 0 C3.08053651 0.58579462 4.84790004 1.4367239 7.1796875 3.51953125 C7.77193115 4.04144043 8.3641748 4.56334961 8.97436523 5.10107422 C9.60157471 5.66584473 10.22878418 6.23061523 10.875 6.8125 C12.2170381 7.99916156 13.55949604 9.18534845 14.90234375 10.37109375 C15.58280762 10.97550293 16.26327148 11.57991211 16.96435547 12.20263672 C20.09097356 14.96327025 23.26363807 17.6689792 26.4375 20.375 C31.32037954 24.55089628 36.18132197 28.74998584 41 33 C40.41420538 36.08053651 39.5632761 37.84790004 37.48046875 40.1796875 C36.95831787 40.77217285 36.43616699 41.3646582 35.89819336 41.97509766 C35.33366455 42.60206543 34.76913574 43.2290332 34.1875 43.875 C33.00477999 45.21316321 31.82249888 46.55171443 30.640625 47.890625 C30.03669922 48.57060547 29.43277344 49.25058594 28.81054688 49.95117188 C25.98616935 53.1472582 23.21059046 56.38442704 20.4375 59.625 C19.94983154 60.19202637 19.46216309 60.75905273 18.9597168 61.34326172 C16.24098327 64.51251199 13.58836018 67.72344052 11 71 C6.55532975 70.12768713 3.92645644 67.63293501 0.625 64.6875 C-0.62748875 63.59231591 -1.88009634 62.49726771 -3.1328125 61.40234375 C-3.77250977 60.8388623 -4.41220703 60.27538086 -5.07128906 59.69482422 C-8.11115715 57.02358824 -11.17866233 54.38493343 -14.25 51.75 C-14.82685547 51.2542749 -15.40371094 50.7585498 -15.99804688 50.24780273 C-20.90591126 46.04575864 -25.91356776 41.98476259 -31 38 C-28.95953274 34.36822493 -26.71381615 31.41731552 -23.875 28.375 C-20.62912126 24.83499632 -17.51709748 21.23696635 -14.5 17.5 C-10.73968672 12.84595029 -6.80435955 8.39535541 -2.75 3.99609375 C-0.95218021 2.11549325 -0.95218021 2.11549325 0 0 Z M-0.3203125 17.2734375 C-1.26169835 18.30138562 -2.19618325 19.33568094 -3.125 20.375 C-3.61202393 20.91286133 -4.09904785 21.45072266 -4.60083008 22.00488281 C-8.93980992 26.83972574 -13.02985581 31.85815137 -17 37 C-13.20351929 40.90413139 -9.21407093 44.47853833 -5.0625 48 C-4.17014648 48.76183594 -4.17014648 48.76183594 -3.25976562 49.5390625 C0.47130126 52.71964411 4.22843462 55.8675854 8 59 C11.88847991 57.47269638 13.76365184 55.12557367 16.3125 51.875 C20.08717364 47.13166011 23.96754078 42.52517128 28 38 C26.66714203 34.97548473 25.28613451 33.10738325 22.76953125 30.9765625 C22.13080078 30.43 21.49207031 29.8834375 20.83398438 29.3203125 C19.83334961 28.48113281 19.83334961 28.48113281 18.8125 27.625 C18.16474609 27.07328125 17.51699219 26.5215625 16.84960938 25.953125 C15.55108399 24.84788661 14.24917643 23.74660906 12.94384766 22.64941406 C11.62436148 21.52978977 10.31702483 20.39571948 9.02099609 19.24902344 C8.39918457 18.70020508 7.77737305 18.15138672 7.13671875 17.5859375 C6.58072998 17.08884277 6.02474121 16.59174805 5.4519043 16.07958984 C2.71016472 14.04091952 2.06489889 14.9364122 -0.3203125 17.2734375 Z " fill="#FFFFFF" transform="translate(40,0)"/>
<path d="M0 0 C3.63177507 2.04046726 6.58268448 4.28618385 9.625 7.125 C13.16500368 10.37087874 16.76303365 13.48290252 20.5 16.5 C27.66116677 22.30196514 34.58745389 28.37370236 41 35 C38.525 37.97 38.525 37.97 36 41 C32.11649732 40.43384016 30.24229686 38.66155353 27.4375 36 C23.88204125 32.70036721 20.27743145 29.5433774 16.5 26.5 C11.94262524 22.81284531 7.57177573 18.96598316 3.23828125 15.01953125 C0.55387852 12.59747853 -2.19881784 10.28517492 -5 8 C-3.62845496 5.04590299 -2.01136276 2.55991624 0 0 Z " fill="#FFFFFF" transform="translate(15,49)"/>
<path d="M0 0 C4.12615036 1.03153759 5.8459821 2.28404014 9 5 C7.50902342 8.7952131 5.24299151 10.61042731 2 13 C-0.31 11.02 -2.62 9.04 -5 7 C-3.35 4.69 -1.7 2.38 0 0 Z " fill="#FFFFFF" transform="translate(56,67)"/>
<path d="M0 0 C5.75 3.625 5.75 3.625 8 7 C6.35 8.98 4.7 10.96 3 13 C-0.79588866 12.45773019 -2.47211993 10.79872437 -5 8 C-3.8141763 4.62496331 -2.72426311 2.35277269 0 0 Z " fill="#FFFFFF" transform="translate(5,41)"/>
</svg>
