<svg width="222" height="46" viewBox="0 0 222 46" fill="none" xmlns="http://www.w3.org/2000/svg">
<path d="M51 38.5023V34.1244H68.3952C69.3131 34.1244 69.9735 34 70.3765 33.7511C70.7795 33.4796 70.981 32.948 70.981 32.1561V30.9005C70.981 30.1765 70.7795 29.6674 70.3765 29.3733C69.9735 29.0566 69.3243 28.8982 68.4288 28.8982H57.5148C56.2387 28.8982 55.1753 28.7851 54.3246 28.5588C53.4962 28.31 52.8358 27.948 52.3433 27.4729C51.8507 26.9751 51.5037 26.3643 51.3022 25.6403C51.1231 24.8937 51.0336 24.0226 51.0336 23.0271V21.8733C51.0336 20.6968 51.1567 19.69 51.403 18.8529C51.6492 18.0158 52.0298 17.3484 52.5447 16.8507C53.0597 16.3303 53.7313 15.957 54.5596 15.7308C55.388 15.4819 56.373 15.3575 57.5148 15.3575H64.6341V19.7353H57.9849C57.2014 19.7353 56.6193 19.8937 56.2387 20.2104C55.8805 20.5045 55.7014 21.1154 55.7014 22.043V22.7896C55.7014 23.5136 55.8693 24.0339 56.2051 24.3507C56.5409 24.6448 57.123 24.7919 57.9514 24.7919H68.6639C69.9399 24.7919 71.0146 24.905 71.8877 25.1312C72.7832 25.3348 73.5108 25.6742 74.0705 26.1493C74.6302 26.6244 75.0331 27.2353 75.2794 27.9819C75.5257 28.7285 75.6488 29.6222 75.6488 30.6629V32.4955C75.6488 33.5814 75.5257 34.5091 75.2794 35.2783C75.0331 36.0249 74.6302 36.6357 74.0705 37.1109C73.5108 37.586 72.7832 37.9367 71.8877 38.1629C71.0146 38.3891 69.9399 38.5023 68.6639 38.5023H51Z" fill="white"/>
<path d="M93.8363 20.1086C95.5378 20.1086 96.9482 20.2557 98.0676 20.5498C99.187 20.8213 100.082 21.2738 100.754 21.9072C101.426 22.5181 101.896 23.3326 102.165 24.3507C102.456 25.3688 102.601 26.6131 102.601 28.0837V30.5611C102.601 32.0317 102.456 33.276 102.165 34.2941C101.896 35.2896 101.426 36.1041 100.754 36.7376C100.082 37.3484 99.187 37.8009 98.0676 38.095C96.9482 38.3665 95.5378 38.5023 93.8363 38.5023H83.6947V44H78.6911V28.0837C78.6911 26.6131 78.8254 25.3688 79.094 24.3507C79.3851 23.3326 79.8664 22.5181 80.538 21.9072C81.2097 21.2738 82.1052 20.8213 83.2246 20.5498C84.3439 20.2557 85.7544 20.1086 87.4558 20.1086H93.8363ZM97.5974 28.2195C97.5974 27.405 97.5303 26.7489 97.3959 26.2511C97.284 25.7534 97.0601 25.3688 96.7243 25.0973C96.3885 24.8258 95.9296 24.6448 95.3475 24.5543C94.7878 24.4638 94.0714 24.4186 93.1983 24.4186H87.6237C86.8402 24.4186 86.1909 24.4751 85.676 24.5882C85.1611 24.7014 84.7581 24.905 84.4671 25.1991C84.176 25.4706 83.9746 25.8552 83.8626 26.3529C83.7507 26.8281 83.6947 27.4389 83.6947 28.1855V34.1923H93.2318C94.105 34.1923 94.8214 34.1584 95.3811 34.0905C95.9408 34 96.3885 33.819 96.7243 33.5475C97.0601 33.276 97.284 32.8914 97.3959 32.3937C97.5303 31.8959 97.5974 31.2285 97.5974 30.3914V28.2195Z" fill="white"/>
<path d="M106.242 38.5023V27.8462C106.242 26.4661 106.398 25.2896 106.712 24.3167C107.025 23.3439 107.518 22.552 108.189 21.9412C108.883 21.3077 109.768 20.8439 110.842 20.5498C111.917 20.2557 113.226 20.1086 114.771 20.1086H118.029V24.2149H114.906C114.212 24.2149 113.629 24.2715 113.159 24.3846C112.689 24.4977 112.309 24.69 112.018 24.9615C111.749 25.233 111.547 25.6063 111.413 26.0814C111.301 26.5566 111.245 27.1561 111.245 27.8801V38.5023H106.242Z" fill="white"/>
<path d="M121.032 38.5023V20.5837H126.136V38.5023H121.032ZM122.744 19.0566C122.118 19.0566 121.67 18.9321 121.401 18.6833C121.155 18.4344 121.032 18.0385 121.032 17.4955V15.5271C121.032 14.9842 121.155 14.5995 121.401 14.3733C121.67 14.1244 122.118 14 122.744 14H124.39C125.039 14 125.487 14.1244 125.733 14.3733C126.002 14.5995 126.136 14.9842 126.136 15.5271V17.4955C126.136 18.0385 126.002 18.4344 125.733 18.6833C125.487 18.9321 125.039 19.0566 124.39 19.0566H122.744Z" fill="white"/>
<path d="M148.553 38.5023V28.2534C148.553 27.4842 148.486 26.862 148.351 26.3869C148.239 25.8891 148.027 25.5045 147.713 25.233C147.422 24.9389 147.008 24.7353 146.471 24.6222C145.956 24.5091 145.295 24.4525 144.489 24.4525H139.049C138.266 24.4525 137.605 24.5091 137.068 24.6222C136.553 24.7353 136.139 24.9389 135.825 25.233C135.512 25.5045 135.288 25.8891 135.154 26.3869C135.042 26.862 134.986 27.4842 134.986 28.2534V38.5023H129.982V28.0837C129.982 26.6131 130.117 25.3688 130.385 24.3507C130.676 23.3326 131.158 22.5181 131.829 21.9072C132.501 21.2738 133.396 20.8213 134.516 20.5498C135.635 20.2557 137.034 20.1086 138.713 20.1086H144.792C146.493 20.1086 147.904 20.2557 149.023 20.5498C150.142 20.8213 151.038 21.2738 151.71 21.9072C152.381 22.5181 152.851 23.3326 153.12 24.3507C153.411 25.3688 153.556 26.6131 153.556 28.0837V38.5023H148.553Z" fill="white"/>
<path d="M158.475 38.5023V24.2149H155.922V20.1086H158.475V14.9163H163.579V20.1086H169.321V24.2149H163.579V38.5023H158.475Z" fill="white"/>
<path d="M185.113 38.5023V15.3575H190.217V38.5023H185.113Z" fill="white"/>
<path d="M215.72 41.8281L212.429 38.2647H202.825C201.124 38.2647 199.713 38.1403 198.594 37.8914C197.474 37.6199 196.579 37.1787 195.907 36.5679C195.236 35.957 194.754 35.1538 194.463 34.1584C194.195 33.1629 194.06 31.9299 194.06 30.4593V23.2986C194.06 21.8507 194.195 20.6176 194.463 19.5995C194.754 18.5814 195.236 17.767 195.907 17.1561C196.579 16.5226 197.474 16.0701 198.594 15.7986C199.713 15.5045 201.124 15.3575 202.825 15.3575H211.523C213.224 15.3575 214.634 15.5045 215.754 15.7986C216.873 16.0701 217.769 16.5226 218.44 17.1561C219.112 17.767 219.582 18.5814 219.851 19.5995C220.142 20.6176 220.287 21.8507 220.287 23.2986V30.4593C220.287 32.1561 220.097 33.5475 219.716 34.6335C219.336 35.6968 218.653 36.5226 217.668 37.1109L222 41.8281H215.72ZM215.183 23.5362C215.183 22.8122 215.116 22.2127 214.981 21.7376C214.87 21.2624 214.668 20.8778 214.377 20.5837C214.086 20.2896 213.683 20.086 213.168 19.9729C212.676 19.8597 212.06 19.8032 211.321 19.8032H203.06C202.254 19.8032 201.594 19.8597 201.079 19.9729C200.586 20.086 200.194 20.2896 199.903 20.5837C199.612 20.8778 199.411 21.2624 199.299 21.7376C199.209 22.2127 199.165 22.8122 199.165 23.5362V29.4412C199.165 30.3688 199.198 31.1267 199.265 31.7149C199.355 32.3032 199.534 32.767 199.803 33.1063C200.071 33.4457 200.463 33.6833 200.978 33.819C201.493 33.9321 202.187 33.9887 203.06 33.9887H211.321C212.06 33.9887 212.676 33.9434 213.168 33.8529C213.683 33.7398 214.086 33.5475 214.377 33.276C214.668 32.9819 214.87 32.5973 214.981 32.1222C215.116 31.6244 215.183 31.0023 215.183 30.2557V23.5362Z" fill="white"/>
<rect x="7.89111" y="24.8392" width="26.1352" height="4.3221" transform="rotate(40.532 7.89111 24.8392)" fill="white"/>
<rect x="7.89111" y="24.8392" width="26.1352" height="4.3221" transform="rotate(40.532 7.89111 24.8392)" fill="white"/>
<rect x="7.89111" y="24.8392" width="26.1352" height="4.3221" transform="rotate(40.532 7.89111 24.8392)" fill="white"/>
<rect x="7.89111" y="24.8392" width="26.1352" height="4.3221" transform="rotate(40.532 7.89111 24.8392)" fill="white"/>
<rect x="7.89111" y="24.8392" width="26.1352" height="4.3221" transform="rotate(40.532 7.89111 24.8392)" fill="white"/>
<rect x="2.81494" y="20.8063" width="4.58058" height="4.33175" transform="rotate(40.532 2.81494 20.8063)" fill="white"/>
<rect x="2.81494" y="20.8063" width="4.58058" height="4.33175" transform="rotate(40.532 2.81494 20.8063)" fill="white"/>
<rect x="2.81494" y="20.8063" width="4.58058" height="4.33175" transform="rotate(40.532 2.81494 20.8063)" fill="white"/>
<rect x="2.81494" y="20.8063" width="4.58058" height="4.33175" transform="rotate(40.532 2.81494 20.8063)" fill="white"/>
<rect x="2.81494" y="20.8063" width="4.58058" height="4.33175" transform="rotate(40.532 2.81494 20.8063)" fill="white"/>
<rect x="28.7041" y="33.5034" width="4.58058" height="4.33175" transform="rotate(40.532 28.7041 33.5034)" fill="white"/>
<rect x="28.7041" y="33.5034" width="4.58058" height="4.33175" transform="rotate(40.532 28.7041 33.5034)" fill="white"/>
<rect x="28.7041" y="33.5034" width="4.58058" height="4.33175" transform="rotate(40.532 28.7041 33.5034)" fill="white"/>
<rect x="28.7041" y="33.5034" width="4.58058" height="4.33175" transform="rotate(40.532 28.7041 33.5034)" fill="white"/>
<rect x="28.7041" y="33.5034" width="4.58058" height="4.33175" transform="rotate(40.532 28.7041 33.5034)" fill="white"/>
<rect x="30.5352" y="23.0782" width="3.80197" height="13.1291" transform="rotate(40.532 30.5352 23.0782)" fill="white"/>
<rect x="30.5352" y="23.0782" width="3.80197" height="13.1291" transform="rotate(40.532 30.5352 23.0782)" fill="white"/>
<rect x="30.5352" y="23.0782" width="3.80197" height="13.1291" transform="rotate(40.532 30.5352 23.0782)" fill="white"/>
<rect x="30.5352" y="23.0782" width="3.80197" height="13.1291" transform="rotate(40.532 30.5352 23.0782)" fill="white"/>
<rect x="30.5352" y="23.0782" width="3.80197" height="13.1291" transform="rotate(40.532 30.5352 23.0782)" fill="white"/>
<path fill-rule="evenodd" clip-rule="evenodd" d="M20.7477 0L40.601 16.9754L32.6622 26.4356L29.7748 23.9667L34.6112 18.3104L21.3011 6.92965L16.4647 12.5859L16.4063 12.536L11.1975 18.6278L27.4195 32.4983L24.7326 35.5339L4.87939 18.5584L20.7477 0Z" fill="white"/>
<path fill-rule="evenodd" clip-rule="evenodd" d="M20.7477 0L40.601 16.9754L32.6622 26.4356L29.7748 23.9667L34.6112 18.3104L21.3011 6.92965L16.4647 12.5859L16.4063 12.536L11.1975 18.6278L27.4195 32.4983L24.7326 35.5339L4.87939 18.5584L20.7477 0Z" fill="white"/>
<path fill-rule="evenodd" clip-rule="evenodd" d="M20.7477 0L40.601 16.9754L32.6622 26.4356L29.7748 23.9667L34.6112 18.3104L21.3011 6.92965L16.4647 12.5859L16.4063 12.536L11.1975 18.6278L27.4195 32.4983L24.7326 35.5339L4.87939 18.5584L20.7477 0Z" fill="white"/>
<path fill-rule="evenodd" clip-rule="evenodd" d="M20.7477 0L40.601 16.9754L32.6622 26.4356L29.7748 23.9667L34.6112 18.3104L21.3011 6.92965L16.4647 12.5859L16.4063 12.536L11.1975 18.6278L27.4195 32.4983L24.7326 35.5339L4.87939 18.5584L20.7477 0Z" fill="white"/>
<path fill-rule="evenodd" clip-rule="evenodd" d="M20.7477 0L40.601 16.9754L32.6622 26.4356L29.7748 23.9667L34.6112 18.3104L21.3011 6.92965L16.4647 12.5859L16.4063 12.536L11.1975 18.6278L27.4195 32.4983L24.7326 35.5339L4.87939 18.5584L20.7477 0Z" fill="white"/>
</svg>
